<mxfile host="app.diagrams.net" modified="2020-09-11T08:39:58.959Z" agent="5.0 (Windows NT 10.0; Win64; x64) AppleWebKit/537.36 (KHTML, like Gecko) Chrome/85.0.4183.102 Safari/537.36" etag="Gu5NvJh_IqWv-LfwdYal" version="13.6.9" type="github">
  <diagram id="28RyJA0lm8WM50FiXVvW" name="Page-1">
    <mxGraphModel dx="1767" dy="720" grid="1" gridSize="10" guides="1" tooltips="1" connect="1" arrows="1" fold="1" page="1" pageScale="1" pageWidth="827" pageHeight="1169" math="0" shadow="0">
      <root>
        <mxCell id="0" />
        <mxCell id="1" parent="0" />
        <mxCell id="C-JBxd__g7ta3socPGrK-3" style="edgeStyle=orthogonalEdgeStyle;rounded=0;orthogonalLoop=1;jettySize=auto;html=1;entryX=0.5;entryY=0;entryDx=0;entryDy=0;" parent="1" source="C-JBxd__g7ta3socPGrK-1" target="C-JBxd__g7ta3socPGrK-2" edge="1">
          <mxGeometry relative="1" as="geometry">
            <Array as="points">
              <mxPoint x="300" y="110" />
              <mxPoint x="150" y="110" />
            </Array>
          </mxGeometry>
        </mxCell>
        <mxCell id="C-JBxd__g7ta3socPGrK-20" value="Being lazy" style="edgeLabel;html=1;align=center;verticalAlign=middle;resizable=0;points=[];" parent="C-JBxd__g7ta3socPGrK-3" vertex="1" connectable="0">
          <mxGeometry x="0.2106" y="-1" relative="1" as="geometry">
            <mxPoint as="offset" />
          </mxGeometry>
        </mxCell>
        <mxCell id="C-JBxd__g7ta3socPGrK-8" style="edgeStyle=orthogonalEdgeStyle;rounded=0;orthogonalLoop=1;jettySize=auto;html=1;" parent="1" source="C-JBxd__g7ta3socPGrK-1" target="C-JBxd__g7ta3socPGrK-7" edge="1">
          <mxGeometry relative="1" as="geometry">
            <Array as="points">
              <mxPoint x="300" y="110" />
              <mxPoint x="420" y="110" />
            </Array>
          </mxGeometry>
        </mxCell>
        <mxCell id="C-JBxd__g7ta3socPGrK-21" value="Being productive&lt;br&gt;" style="edgeLabel;html=1;align=center;verticalAlign=middle;resizable=0;points=[];" parent="C-JBxd__g7ta3socPGrK-8" vertex="1" connectable="0">
          <mxGeometry x="0.0456" y="-2" relative="1" as="geometry">
            <mxPoint x="-9.17" y="-2" as="offset" />
          </mxGeometry>
        </mxCell>
        <mxCell id="C-JBxd__g7ta3socPGrK-1" value="You learn something" style="rounded=0;whiteSpace=wrap;html=1;direction=east;" parent="1" vertex="1">
          <mxGeometry x="240" y="50" width="120" height="30" as="geometry" />
        </mxCell>
        <mxCell id="C-JBxd__g7ta3socPGrK-5" style="edgeStyle=orthogonalEdgeStyle;rounded=0;orthogonalLoop=1;jettySize=auto;html=1;entryX=0.5;entryY=0;entryDx=0;entryDy=0;" parent="1" source="C-JBxd__g7ta3socPGrK-2" target="C-JBxd__g7ta3socPGrK-4" edge="1">
          <mxGeometry relative="1" as="geometry" />
        </mxCell>
        <mxCell id="C-JBxd__g7ta3socPGrK-2" value="You don&#39;t implement it" style="rounded=0;whiteSpace=wrap;html=1;direction=east;" parent="1" vertex="1">
          <mxGeometry x="85" y="150" width="130" height="30" as="geometry" />
        </mxCell>
        <mxCell id="C-JBxd__g7ta3socPGrK-6" style="edgeStyle=orthogonalEdgeStyle;rounded=0;orthogonalLoop=1;jettySize=auto;html=1;entryX=0;entryY=0.5;entryDx=0;entryDy=0;" parent="1" source="C-JBxd__g7ta3socPGrK-4" target="C-JBxd__g7ta3socPGrK-1" edge="1">
          <mxGeometry relative="1" as="geometry">
            <Array as="points">
              <mxPoint x="60" y="250" />
              <mxPoint x="60" y="65" />
            </Array>
          </mxGeometry>
        </mxCell>
        <mxCell id="C-JBxd__g7ta3socPGrK-18" value="Tutorials Hell" style="edgeLabel;html=1;align=center;verticalAlign=middle;resizable=0;points=[];" parent="C-JBxd__g7ta3socPGrK-6" vertex="1" connectable="0">
          <mxGeometry x="0.1844" y="1" relative="1" as="geometry">
            <mxPoint x="46.67" y="1" as="offset" />
          </mxGeometry>
        </mxCell>
        <mxCell id="C-JBxd__g7ta3socPGrK-4" value="Makes you think you don&#39;t know it fully&lt;br&gt;(Lack of confidence)" style="whiteSpace=wrap;html=1;direction=east;" parent="1" vertex="1">
          <mxGeometry x="80" y="220" width="140" height="60" as="geometry" />
        </mxCell>
        <mxCell id="C-JBxd__g7ta3socPGrK-10" style="edgeStyle=orthogonalEdgeStyle;rounded=0;orthogonalLoop=1;jettySize=auto;html=1;entryX=0.5;entryY=0;entryDx=0;entryDy=0;" parent="1" source="C-JBxd__g7ta3socPGrK-7" target="C-JBxd__g7ta3socPGrK-9" edge="1">
          <mxGeometry relative="1" as="geometry" />
        </mxCell>
        <mxCell id="C-JBxd__g7ta3socPGrK-7" value="You implement it" style="whiteSpace=wrap;html=1;direction=east;" parent="1" vertex="1">
          <mxGeometry x="360" y="150" width="120" height="30" as="geometry" />
        </mxCell>
        <mxCell id="C-JBxd__g7ta3socPGrK-13" style="edgeStyle=orthogonalEdgeStyle;rounded=0;orthogonalLoop=1;jettySize=auto;html=1;entryX=0.5;entryY=0;entryDx=0;entryDy=0;" parent="1" source="C-JBxd__g7ta3socPGrK-9" target="C-JBxd__g7ta3socPGrK-12" edge="1">
          <mxGeometry relative="1" as="geometry" />
        </mxCell>
        <mxCell id="C-JBxd__g7ta3socPGrK-22" value="&lt;i&gt;employee&lt;/i&gt;" style="edgeLabel;html=1;align=center;verticalAlign=middle;resizable=0;points=[];" parent="C-JBxd__g7ta3socPGrK-13" vertex="1" connectable="0">
          <mxGeometry x="0.2918" relative="1" as="geometry">
            <mxPoint x="19" y="-5.029999999999999" as="offset" />
          </mxGeometry>
        </mxCell>
        <mxCell id="C-JBxd__g7ta3socPGrK-15" style="edgeStyle=orthogonalEdgeStyle;rounded=0;orthogonalLoop=1;jettySize=auto;html=1;" parent="1" source="C-JBxd__g7ta3socPGrK-9" target="C-JBxd__g7ta3socPGrK-14" edge="1">
          <mxGeometry relative="1" as="geometry" />
        </mxCell>
        <mxCell id="C-JBxd__g7ta3socPGrK-23" value="business" style="edgeLabel;html=1;align=center;verticalAlign=middle;resizable=0;points=[];" parent="C-JBxd__g7ta3socPGrK-15" vertex="1" connectable="0">
          <mxGeometry x="0.1327" y="-1" relative="1" as="geometry">
            <mxPoint x="0.43" y="-6.03" as="offset" />
          </mxGeometry>
        </mxCell>
        <mxCell id="C-JBxd__g7ta3socPGrK-25" style="edgeStyle=orthogonalEdgeStyle;rounded=0;orthogonalLoop=1;jettySize=auto;html=1;" parent="1" source="C-JBxd__g7ta3socPGrK-9" target="C-JBxd__g7ta3socPGrK-24" edge="1">
          <mxGeometry relative="1" as="geometry" />
        </mxCell>
        <mxCell id="C-JBxd__g7ta3socPGrK-26" value="self-employeed" style="edgeLabel;html=1;align=center;verticalAlign=middle;resizable=0;points=[];direction=south;rotation=0;" parent="C-JBxd__g7ta3socPGrK-25" vertex="1" connectable="0">
          <mxGeometry x="0.2834" y="1" relative="1" as="geometry">
            <mxPoint x="-1" y="16" as="offset" />
          </mxGeometry>
        </mxCell>
        <mxCell id="C-JBxd__g7ta3socPGrK-9" value="You actually know the thing now." style="whiteSpace=wrap;html=1;direction=east;" parent="1" vertex="1">
          <mxGeometry x="360" y="220" width="120" height="40" as="geometry" />
        </mxCell>
        <mxCell id="C-JBxd__g7ta3socPGrK-12" value="Add to the Resume" style="whiteSpace=wrap;html=1;" parent="1" vertex="1">
          <mxGeometry x="260" y="310" width="129" height="27.64" as="geometry" />
        </mxCell>
        <mxCell id="C-JBxd__g7ta3socPGrK-14" value="Make your own product" style="whiteSpace=wrap;html=1;" parent="1" vertex="1">
          <mxGeometry x="450" y="310" width="139" height="27.64" as="geometry" />
        </mxCell>
        <mxCell id="C-JBxd__g7ta3socPGrK-19" value="&lt;i&gt;&lt;font style=&quot;font-size: 14px&quot;&gt;Making of something Awesome&lt;/font&gt;&lt;/i&gt;" style="text;html=1;strokeColor=none;fillColor=none;align=center;verticalAlign=middle;whiteSpace=wrap;rounded=0;" parent="1" vertex="1">
          <mxGeometry x="230" y="160" width="120" height="50" as="geometry" />
        </mxCell>
        <mxCell id="C-JBxd__g7ta3socPGrK-24" value="Freelancing" style="whiteSpace=wrap;html=1;" parent="1" vertex="1">
          <mxGeometry x="380" y="380" width="80" height="20" as="geometry" />
        </mxCell>
      </root>
    </mxGraphModel>
  </diagram>
</mxfile>
